<svg width="1177" height="269" viewBox="0 0 1177 269" fill="none" xmlns="http://www.w3.org/2000/svg">
<path d="M543.35 221.766C547.137 223.855 551.077 225.691 555.146 227.252L634.81 221.632C638.62 219.515 642.263 217.145 645.719 214.545L543.35 221.766Z" fill="url(#paint0_linear_386_92)"/>
<path d="M521.32 204.999C523.538 207.267 525.867 209.422 528.298 211.456L659.175 202.224C661.297 199.868 663.3 197.408 665.177 194.851L521.32 204.999Z" fill="url(#paint1_linear_386_92)"/>
<path d="M509.012 189.441C510.724 192.147 512.57 194.758 514.538 197.264L670.807 186.241C672.403 183.483 673.864 180.639 675.18 177.719L509.012 189.441Z" fill="url(#paint2_linear_386_92)"/>
<path d="M499.6 169.889C501.141 174.348 503.004 178.648 505.159 182.764L678.057 170.567C679.613 166.19 680.853 161.671 681.753 157.039L499.6 169.889Z" fill="url(#paint3_linear_386_92)"/>
<path d="M494.803 147.484C495.366 153.719 496.526 159.764 498.221 165.564L682.511 152.563C683.376 146.583 683.675 140.436 683.357 134.183L494.803 147.484Z" fill="url(#paint4_linear_386_92)"/>
<path d="M683.196 131.667L494.61 144.97C491.294 93.1579 530.427 48.3108 582.295 44.6519C634.164 40.9929 679.205 79.9021 683.196 131.667Z" fill="url(#paint5_linear_386_92)"/>
<path d="M39.6412 84.6655L38.0661 92.3863L1175.06 7.83558L1176.72 0L39.6412 84.6655Z" fill="#FF00E6"/>
<path d="M0.363935 268.713L1135.81 184.336L1137.47 176.501L1.91527 261.007L0.363935 268.713Z" fill="#FF00E6"/>
<path d="M673.818 109.6L637.859 112.108L642.222 91.3794L658.47 90.2445L655.612 103.958L675.324 102.586L682.394 68.906L626.722 72.7853L614.087 133.435L650.047 130.928L644.176 158.368L628.076 159.493L631.689 142.577L611.829 143.96L604.004 180.845L659.675 176.966L673.818 109.6Z" fill="black"/>
<path d="M702.109 87.2395L721.067 85.9189L702.561 174.005L722.272 172.626L740.78 84.5394L759.736 83.2189L763.949 63.2503L706.323 67.2725L702.109 87.2395Z" fill="black"/>
<path d="M799.157 100.58L803.369 80.1659L819.469 79.041L815.254 99.4575L799.157 100.58ZM820.67 165.753L843.393 57.7004L787.872 61.5778L765.151 169.63L784.862 168.25L794.942 120.695L811.041 119.57L800.961 167.128L820.67 165.753Z" fill="black"/>
<path d="M885.777 161.371L904.285 73.2846L923.242 71.9566L927.457 51.9933L869.831 56.0157L865.618 75.979L884.574 74.6585L866.069 162.745L885.777 161.371Z" fill="black"/>
<path d="M928.628 158.415L948.337 157.043L971.057 48.991L951.347 50.3705L928.628 158.415Z" fill="black"/>
<path d="M1013.01 65.864L1029.11 64.7393L1014.81 132.864L998.712 133.989L1013.01 65.864ZM974.789 155.323L1030.31 151.454L1053.03 43.4015L997.507 47.2706L974.789 155.323Z" fill="black"/>
<path d="M1076.5 148.41L1086.88 99.3287L1095.91 147.052L1113.06 145.855L1135.78 37.8029L1116.07 39.1825L1105.69 89.0093L1096.66 40.5348L1079.51 41.7318L1056.79 149.784L1076.5 148.41Z" fill="black"/>
<path d="M583.994 115.814L548.035 118.321L552.398 97.5932L568.646 96.4582L565.788 110.172L585.5 108.8L592.57 75.1197L536.898 78.9991L524.264 139.648L560.223 137.141L554.352 164.582L538.252 165.707L541.865 148.791L522.005 150.173L514.18 187.059L569.851 183.179L583.994 115.814Z" fill="black"/>
<path d="M461.004 190.992L480.713 189.62L503.434 81.5683L483.723 82.9478L461.004 190.992Z" fill="black"/>
<path fill-rule="evenodd" clip-rule="evenodd" d="M377.183 196.907L399.81 89.1027L455.218 85.223L432.6 193.046L377.183 196.907ZM401.012 175.595L415.687 174.611L419.887 154.067L429.92 106.611L415.234 107.617L401.012 175.595Z" fill="black"/>
<path d="M328.242 113.24L344.271 112.117L340.076 132.488L324.046 133.611L328.242 113.24ZM290.189 202.506L309.814 201.137L319.852 153.683L335.882 152.561L325.844 200.015L345.469 198.64L368.09 90.8206L312.813 94.6867L290.189 202.506Z" fill="black"/>
<path d="M203.614 208.065L258.742 204.21L266.531 167.405L246.906 168.78L243.313 185.659L227.433 186.771L241.663 118.795L257.543 117.677L254.701 131.367L274.324 129.992L281.367 96.3836L226.237 100.238L203.614 208.065Z" fill="black"/>
<path d="M169.256 144.227L154.575 145.252L158.77 124.731L173.45 123.701L169.256 144.227ZM143.339 106.184L120.72 214.003L140.342 212.634L150.38 165.176L184.685 162.783L197.27 102.412L143.339 106.184Z" fill="black"/>
<path d="M176.016 210.197L154.996 211.662L149.694 168.967L140.475 212.673L120.72 214.05L143.347 106.245L162.952 104.872L153.687 149.082L172.372 146.51L176.689 103.911L183.028 111.823H189.949L181.085 155.564L169.791 160.455L176.016 210.197Z" fill="black"/>
<path d="M79.4419 130.398L95.4713 129.276L91.276 149.647L75.2465 150.769L79.4419 130.398ZM41.3896 219.665L61.0145 218.296L71.0524 170.842L87.0818 169.72L77.044 217.173L96.6694 215.799L119.291 107.979L64.0131 111.845L41.3896 219.665Z" fill="black"/>
<mask id="mask0_386_92" style="mask-type:alpha" maskUnits="userSpaceOnUse" x="41" y="37" width="1095" height="183">
<path d="M673.818 109.6L637.859 112.108L642.222 91.3794L658.47 90.2445L655.612 103.958L675.324 102.586L682.394 68.906L626.722 72.7853L614.087 133.435L650.047 130.928L644.176 158.368L628.076 159.493L631.689 142.577L611.829 143.96L604.004 180.845L659.675 176.966L673.818 109.6Z" fill="black"/>
<path d="M702.109 87.2395L721.067 85.9189L702.561 174.005L722.272 172.626L740.78 84.5394L759.736 83.2189L763.949 63.2503L706.323 67.2725L702.109 87.2395Z" fill="black"/>
<path d="M799.157 100.58L803.369 80.1659L819.469 79.041L815.254 99.4575L799.157 100.58ZM820.67 165.753L843.393 57.7004L787.872 61.5778L765.151 169.63L784.862 168.25L794.942 120.695L811.041 119.57L800.961 167.128L820.67 165.753Z" fill="black"/>
<path d="M885.777 161.371L904.285 73.2846L923.242 71.9566L927.457 51.9933L869.831 56.0157L865.618 75.979L884.574 74.6585L866.069 162.745L885.777 161.371Z" fill="black"/>
<path d="M928.628 158.415L948.337 157.043L971.057 48.991L951.347 50.3705L928.628 158.415Z" fill="black"/>
<path d="M1013.01 65.864L1029.11 64.7393L1014.81 132.864L998.712 133.989L1013.01 65.864ZM974.789 155.323L1030.31 151.454L1053.03 43.4015L997.507 47.2706L974.789 155.323Z" fill="black"/>
<path d="M1076.5 148.41L1086.88 99.3287L1095.91 147.052L1113.06 145.855L1135.78 37.8029L1116.07 39.1825L1105.69 89.0093L1096.66 40.5348L1079.51 41.7318L1056.79 149.784L1076.5 148.41Z" fill="black"/>
<path d="M583.994 115.814L548.035 118.321L552.398 97.5932L568.646 96.4582L565.788 110.172L585.5 108.8L592.57 75.1197L536.898 78.9991L524.264 139.648L560.223 137.141L554.352 164.582L538.252 165.707L541.865 148.791L522.005 150.173L514.18 187.059L569.851 183.179L583.994 115.814Z" fill="black"/>
<path d="M461.004 190.992L480.713 189.62L503.434 81.5683L483.723 82.9478L461.004 190.992Z" fill="black"/>
<path fill-rule="evenodd" clip-rule="evenodd" d="M377.183 196.907L399.81 89.1027L455.218 85.223L432.6 193.046L377.183 196.907ZM401.012 175.595L415.687 174.611L419.887 154.067L429.92 106.611L415.234 107.617L401.012 175.595Z" fill="black"/>
<path d="M328.242 113.24L344.271 112.117L340.076 132.488L324.046 133.611L328.242 113.24ZM290.189 202.506L309.814 201.137L319.852 153.683L335.882 152.561L325.844 200.015L345.469 198.64L368.09 90.8206L312.813 94.6867L290.189 202.506Z" fill="black"/>
<path d="M203.614 208.065L258.742 204.21L266.531 167.405L246.906 168.78L243.313 185.659L227.433 186.771L241.663 118.795L257.543 117.677L254.701 131.367L274.324 129.992L281.367 96.3836L226.237 100.238L203.614 208.065Z" fill="black"/>
<path d="M169.256 144.227L154.575 145.252L158.77 124.731L173.45 123.701L169.256 144.227ZM143.339 106.184L120.72 214.003L140.342 212.634L150.38 165.176L184.685 162.783L197.27 102.412L143.339 106.184Z" fill="black"/>
<path d="M176.016 210.197L154.996 211.662L149.694 168.967L140.475 212.673L120.72 214.05L143.347 106.245L162.952 104.872L153.687 149.082L172.372 146.51L176.689 103.911L183.028 111.823H189.949L181.085 155.564L169.791 160.455L176.016 210.197Z" fill="black"/>
<path d="M79.4419 130.398L95.4713 129.276L91.276 149.647L75.2465 150.769L79.4419 130.398ZM41.3896 219.665L61.0145 218.296L71.0524 170.842L87.0818 169.72L77.044 217.173L96.6694 215.799L119.291 107.979L64.0131 111.845L41.3896 219.665Z" fill="black"/>
</mask>
<g mask="url(#mask0_386_92)">
<g filter="url(#filter0_f_386_92)">
<path d="M-11.4991 -21.0474L11.2997 362.275M-26.3337 -4.13682L1236.43 -79.2423M20.0701 -22.925L42.8689 360.398M-24.4338 27.8067L1238.33 -47.2987M51.6393 -24.8027L74.4381 358.52M83.2085 -26.6803L106.007 356.642M-22.5339 59.7503L1240.23 -15.3552M-20.634 91.6938L1242.13 16.5884M114.778 -28.558L137.577 354.765M146.347 -30.4356L169.146 352.887M177.916 -32.3132L200.715 351.009M209.485 -34.1909L232.284 349.132M-18.7341 123.637L1244.03 48.5319M-16.8342 155.581L1245.93 80.4755M-14.9343 187.524L1247.83 112.419M-13.0344 219.468L1249.73 144.363M-11.1345 251.412L1251.63 176.306M-9.23464 283.355L1253.53 208.25M-7.33474 315.299L1255.43 240.193M-5.43484 347.242L1257.33 272.137M241.055 -36.0685L263.853 347.254M272.624 -37.9461L295.423 345.376M304.193 -39.8238L326.992 343.499M335.762 -41.7014L358.561 341.621M367.331 -43.579L390.13 339.744M398.901 -45.4567L421.699 337.866M430.47 -47.3343L453.269 335.988M462.039 -49.2119L484.838 334.111M493.608 -51.0896L516.407 332.233M525.178 -52.9672L547.976 330.355M556.747 -54.8449L579.546 328.478M588.316 -56.7225L611.115 326.6M619.885 -58.6001L642.684 324.722M651.454 -60.4778L674.253 322.845M683.024 -62.3554L705.822 320.967M714.593 -64.233L737.392 319.09M746.162 -66.1107L768.961 317.212M777.731 -67.9883L800.53 315.334M809.3 -69.8659L832.099 313.457M840.87 -71.7436L863.668 311.579M872.439 -73.6212L895.238 309.701M904.008 -75.4989L926.807 307.824M935.577 -77.3765L958.376 305.946M967.146 -79.2541L989.945 304.068M998.716 -81.1318L1021.51 302.191M1030.28 -83.0094L1053.08 300.313M1061.85 -84.887L1084.65 298.436M1093.42 -86.7647L1116.22 296.558M1124.99 -88.6423L1147.79 294.68M1156.56 -90.5199L1179.36 292.803M1188.13 -92.3976L1210.93 290.925M1219.7 -94.2752L1242.5 289.047" stroke="url(#paint6_linear_386_92)" stroke-width="3"/>
</g>
<g filter="url(#filter1_f_386_92)">
<path d="M-11.4991 -21.0474L11.2997 362.275M-26.3337 -4.13682L1236.43 -79.2423M20.0701 -22.925L42.8689 360.398M-24.4338 27.8067L1238.33 -47.2987M51.6393 -24.8027L74.4381 358.52M83.2085 -26.6803L106.007 356.642M-22.5339 59.7503L1240.23 -15.3552M-20.634 91.6938L1242.13 16.5884M114.778 -28.558L137.577 354.765M146.347 -30.4356L169.146 352.887M177.916 -32.3132L200.715 351.009M209.485 -34.1909L232.284 349.132M-18.7341 123.637L612.65 86.0847L1244.03 48.5319M-16.8342 155.581L1245.93 80.4755M-14.9343 187.524L1247.83 112.419M-13.0344 219.468L1249.73 144.363M-11.1345 251.412L1251.63 176.306M-9.23464 283.355L1253.53 208.25M-7.33474 315.299L1255.43 240.193M-5.43484 347.242L1257.33 272.137M241.055 -36.0685L263.853 347.254M272.624 -37.9461L295.423 345.376M304.193 -39.8238L326.992 343.499M335.762 -41.7014L358.561 341.621M367.331 -43.579L390.13 339.744M398.901 -45.4567L421.699 337.866M430.47 -47.3343L453.269 335.988M462.039 -49.2119L484.838 334.111M493.608 -51.0896L516.407 332.233M525.178 -52.9672L547.976 330.355M556.747 -54.8449L579.546 328.478M588.316 -56.7225L611.115 326.6M619.885 -58.6001L642.684 324.722M651.454 -60.4778L674.253 322.845M683.024 -62.3554L705.822 320.967M714.593 -64.233L737.392 319.09M746.162 -66.1107L768.961 317.212M777.731 -67.9883L800.53 315.334M809.3 -69.8659L832.099 313.457M840.87 -71.7436L863.668 311.579M872.439 -73.6212L895.238 309.701M904.008 -75.4989L926.807 307.824M935.577 -77.3765L958.376 305.946M967.146 -79.2541L989.945 304.068M998.716 -81.1318L1021.51 302.191M1030.28 -83.0094L1053.08 300.313M1061.85 -84.887L1084.65 298.436M1093.42 -86.7647L1116.22 296.558M1124.99 -88.6423L1147.79 294.68M1156.56 -90.5199L1179.36 292.803M1188.13 -92.3976L1210.93 290.925M1219.7 -94.2752L1242.5 289.047" stroke="url(#paint7_linear_386_92)" stroke-opacity="0.25" stroke-width="10"/>
</g>
</g>
<mask id="path-7-outside-1_386_92" maskUnits="userSpaceOnUse" x="35.3896" y="32.8029" width="1106" height="192" fill="black">
<rect fill="white" x="35.3896" y="32.8029" width="1106" height="192"/>
<path d="M673.818 109.6L637.859 112.108L642.222 91.3794L658.469 90.2445L655.612 103.958L675.324 102.586L682.394 68.906L626.722 72.7854L614.087 133.435L650.047 130.928L644.176 158.368L628.076 159.493L631.689 142.577L611.828 143.96L604.003 180.845L659.675 176.966L673.818 109.6Z"/>
<path d="M702.109 87.2395L721.067 85.9189L702.561 174.005L722.271 172.626L740.779 84.5394L759.736 83.2189L763.949 63.2503L706.323 67.2725L702.109 87.2395Z"/>
<path d="M799.157 100.58L803.369 80.1659L819.469 79.041L815.253 99.4575L799.157 100.58ZM820.67 165.753L843.393 57.7004L787.871 61.5778L765.151 169.63L784.862 168.25L794.942 120.695L811.041 119.571L800.96 167.128L820.67 165.753Z"/>
<path d="M885.776 161.371L904.284 73.2846L923.242 71.9566L927.457 51.9933L869.83 56.0157L865.618 75.979L884.574 74.6585L866.068 162.745L885.776 161.371Z"/>
<path d="M928.628 158.415L948.337 157.043L971.057 48.991L951.347 50.3705L928.628 158.415Z"/>
<path d="M1013.01 65.864L1029.11 64.7394L1014.81 132.864L998.712 133.989L1013.01 65.864ZM974.789 155.323L1030.31 151.454L1053.03 43.4016L997.507 47.2706L974.789 155.323Z"/>
<path d="M1076.5 148.41L1086.88 99.3287L1095.91 147.052L1113.06 145.855L1135.78 37.8029L1116.07 39.1826L1105.69 89.0093L1096.66 40.5349L1079.51 41.7318L1056.79 149.784L1076.5 148.41Z"/>
<path d="M583.994 115.814L548.035 118.321L552.398 97.5932L568.646 96.4582L565.788 110.172L585.5 108.8L592.57 75.1197L536.898 78.9991L524.264 139.648L560.223 137.141L554.352 164.582L538.252 165.707L541.865 148.791L522.005 150.173L514.18 187.059L569.851 183.179L583.994 115.814Z"/>
<path d="M461.004 190.992L480.713 189.62L503.434 81.5683L483.723 82.9478L461.004 190.992Z"/>
<path fill-rule="evenodd" clip-rule="evenodd" d="M377.183 196.907L399.81 89.1027L455.218 85.223L432.6 193.046L377.183 196.907ZM401.012 175.595L415.687 174.611L419.887 154.067L429.92 106.611L415.234 107.617L401.012 175.595Z"/>
<path d="M328.242 113.24L344.271 112.117L340.076 132.488L324.046 133.611L328.242 113.24ZM290.189 202.506L309.814 201.137L319.852 153.683L335.882 152.561L325.844 200.015L345.469 198.64L368.09 90.8206L312.813 94.6867L290.189 202.506Z"/>
<path d="M203.614 208.065L258.742 204.21L266.531 167.405L246.906 168.78L243.313 185.659L227.433 186.771L241.663 118.795L257.543 117.677L254.701 131.367L274.324 129.992L281.367 96.3836L226.237 100.238L203.614 208.065Z"/>
<path d="M169.256 144.227L154.575 145.252L158.77 124.731L173.45 123.701L169.256 144.227ZM143.339 106.184L120.72 214.003L140.342 212.634L149.71 168.834L154.977 211.678L176.072 210.263L170.217 163.811L184.685 162.783L197.27 102.412L143.339 106.184Z"/>
<path d="M79.4419 130.398L95.4713 129.276L91.276 149.647L75.2465 150.769L79.4419 130.398ZM41.3896 219.665L61.0145 218.296L71.0524 170.842L87.0818 169.72L77.044 217.173L96.6694 215.799L119.291 107.979L64.0131 111.845L41.3896 219.665Z"/>
</mask>
<path d="M673.818 109.6L637.859 112.108L642.222 91.3794L658.469 90.2445L655.612 103.958L675.324 102.586L682.394 68.906L626.722 72.7854L614.087 133.435L650.047 130.928L644.176 158.368L628.076 159.493L631.689 142.577L611.828 143.96L604.003 180.845L659.675 176.966L673.818 109.6Z" stroke="white" stroke-width="8" mask="url(#path-7-outside-1_386_92)"/>
<path d="M702.109 87.2395L721.067 85.9189L702.561 174.005L722.271 172.626L740.779 84.5394L759.736 83.2189L763.949 63.2503L706.323 67.2725L702.109 87.2395Z" stroke="white" stroke-width="8" mask="url(#path-7-outside-1_386_92)"/>
<path d="M799.157 100.58L803.369 80.1659L819.469 79.041L815.253 99.4575L799.157 100.58ZM820.67 165.753L843.393 57.7004L787.871 61.5778L765.151 169.63L784.862 168.25L794.942 120.695L811.041 119.571L800.96 167.128L820.67 165.753Z" stroke="white" stroke-width="8" mask="url(#path-7-outside-1_386_92)"/>
<path d="M885.776 161.371L904.284 73.2846L923.242 71.9566L927.457 51.9933L869.83 56.0157L865.618 75.979L884.574 74.6585L866.068 162.745L885.776 161.371Z" stroke="white" stroke-width="8" mask="url(#path-7-outside-1_386_92)"/>
<path d="M928.628 158.415L948.337 157.043L971.057 48.991L951.347 50.3705L928.628 158.415Z" stroke="white" stroke-width="8" mask="url(#path-7-outside-1_386_92)"/>
<path d="M1013.01 65.864L1029.11 64.7394L1014.81 132.864L998.712 133.989L1013.01 65.864ZM974.789 155.323L1030.31 151.454L1053.03 43.4016L997.507 47.2706L974.789 155.323Z" stroke="white" stroke-width="8" mask="url(#path-7-outside-1_386_92)"/>
<path d="M1076.5 148.41L1086.88 99.3287L1095.91 147.052L1113.06 145.855L1135.78 37.8029L1116.07 39.1826L1105.69 89.0093L1096.66 40.5349L1079.51 41.7318L1056.79 149.784L1076.5 148.41Z" stroke="white" stroke-width="8" mask="url(#path-7-outside-1_386_92)"/>
<path d="M583.994 115.814L548.035 118.321L552.398 97.5932L568.646 96.4582L565.788 110.172L585.5 108.8L592.57 75.1197L536.898 78.9991L524.264 139.648L560.223 137.141L554.352 164.582L538.252 165.707L541.865 148.791L522.005 150.173L514.18 187.059L569.851 183.179L583.994 115.814Z" stroke="white" stroke-width="8" mask="url(#path-7-outside-1_386_92)"/>
<path d="M461.004 190.992L480.713 189.62L503.434 81.5683L483.723 82.9478L461.004 190.992Z" stroke="white" stroke-width="8" mask="url(#path-7-outside-1_386_92)"/>
<path fill-rule="evenodd" clip-rule="evenodd" d="M377.183 196.907L399.81 89.1027L455.218 85.223L432.6 193.046L377.183 196.907ZM401.012 175.595L415.687 174.611L419.887 154.067L429.92 106.611L415.234 107.617L401.012 175.595Z" stroke="white" stroke-width="8" mask="url(#path-7-outside-1_386_92)"/>
<path d="M328.242 113.24L344.271 112.117L340.076 132.488L324.046 133.611L328.242 113.24ZM290.189 202.506L309.814 201.137L319.852 153.683L335.882 152.561L325.844 200.015L345.469 198.64L368.09 90.8206L312.813 94.6867L290.189 202.506Z" stroke="white" stroke-width="8" mask="url(#path-7-outside-1_386_92)"/>
<path d="M203.614 208.065L258.742 204.21L266.531 167.405L246.906 168.78L243.313 185.659L227.433 186.771L241.663 118.795L257.543 117.677L254.701 131.367L274.324 129.992L281.367 96.3836L226.237 100.238L203.614 208.065Z" stroke="white" stroke-width="8" mask="url(#path-7-outside-1_386_92)"/>
<path d="M169.256 144.227L154.575 145.252L158.77 124.731L173.45 123.701L169.256 144.227ZM143.339 106.184L120.72 214.003L140.342 212.634L149.71 168.834L154.977 211.678L176.072 210.263L170.217 163.811L184.685 162.783L197.27 102.412L143.339 106.184Z" stroke="white" stroke-width="8" mask="url(#path-7-outside-1_386_92)"/>
<path d="M79.4419 130.398L95.4713 129.276L91.276 149.647L75.2465 150.769L79.4419 130.398ZM41.3896 219.665L61.0145 218.296L71.0524 170.842L87.0818 169.72L77.044 217.173L96.6694 215.799L119.291 107.979L64.0131 111.845L41.3896 219.665Z" stroke="white" stroke-width="8" mask="url(#path-7-outside-1_386_92)"/>
<defs>
<filter id="filter0_f_386_92" x="-28.9229" y="-96.8643" width="1288.85" height="461.729" filterUnits="userSpaceOnUse" color-interpolation-filters="sRGB">
<feFlood flood-opacity="0" result="BackgroundImageFix"/>
<feBlend mode="normal" in="SourceGraphic" in2="BackgroundImageFix" result="shape"/>
<feGaussianBlur stdDeviation="1.25" result="effect1_foregroundBlur_386_92"/>
</filter>
<filter id="filter1_f_386_92" x="-29.1304" y="-97.0721" width="1289.26" height="462.144" filterUnits="userSpaceOnUse" color-interpolation-filters="sRGB">
<feFlood flood-opacity="0" result="BackgroundImageFix"/>
<feBlend mode="normal" in="SourceGraphic" in2="BackgroundImageFix" result="shape"/>
<feGaussianBlur stdDeviation="1.25" result="effect1_foregroundBlur_386_92"/>
</filter>
<linearGradient id="paint0_linear_386_92" x1="582.295" y1="44.6519" x2="595.599" y2="233.243" gradientUnits="userSpaceOnUse">
<stop stop-color="#F9BC46"/>
<stop offset="1" stop-color="#FF00E5"/>
</linearGradient>
<linearGradient id="paint1_linear_386_92" x1="582.295" y1="44.6519" x2="595.599" y2="233.243" gradientUnits="userSpaceOnUse">
<stop stop-color="#F9BC46"/>
<stop offset="1" stop-color="#FF00E5"/>
</linearGradient>
<linearGradient id="paint2_linear_386_92" x1="582.295" y1="44.6519" x2="595.599" y2="233.243" gradientUnits="userSpaceOnUse">
<stop stop-color="#F9BC46"/>
<stop offset="1" stop-color="#FF00E5"/>
</linearGradient>
<linearGradient id="paint3_linear_386_92" x1="582.295" y1="44.6519" x2="595.599" y2="233.243" gradientUnits="userSpaceOnUse">
<stop stop-color="#F9BC46"/>
<stop offset="1" stop-color="#FF00E5"/>
</linearGradient>
<linearGradient id="paint4_linear_386_92" x1="582.295" y1="44.6519" x2="595.599" y2="233.243" gradientUnits="userSpaceOnUse">
<stop stop-color="#F9BC46"/>
<stop offset="1" stop-color="#FF00E5"/>
</linearGradient>
<linearGradient id="paint5_linear_386_92" x1="582.295" y1="44.6519" x2="595.599" y2="233.243" gradientUnits="userSpaceOnUse">
<stop stop-color="#F9BC46"/>
<stop offset="1" stop-color="#FF00E5"/>
</linearGradient>
<linearGradient id="paint6_linear_386_92" x1="-11.372" y1="247.419" x2="1244.21" y2="51.5267" gradientUnits="userSpaceOnUse">
<stop stop-color="#00D1FF"/>
<stop offset="0.21" stop-color="#2400FF"/>
<stop offset="0.4" stop-color="#FF00F5"/>
<stop offset="0.62" stop-color="#2400FF"/>
<stop offset="0.815" stop-color="#00D1FF"/>
<stop offset="1" stop-color="#EB00FF"/>
</linearGradient>
<linearGradient id="paint7_linear_386_92" x1="-11.372" y1="247.419" x2="1244.21" y2="51.5267" gradientUnits="userSpaceOnUse">
<stop stop-color="#00D1FF"/>
<stop offset="0.21" stop-color="#2400FF"/>
<stop offset="0.4" stop-color="#FF00F5"/>
<stop offset="0.62" stop-color="#2400FF"/>
<stop offset="0.815" stop-color="#00D1FF"/>
<stop offset="1" stop-color="#EB00FF"/>
</linearGradient>
</defs>
</svg>
